<svg width="800" height="800" viewBox="0 0 36 36" xmlns="http://www.w3.org/2000/svg" aria-hidden="true"><defs><linearGradient id="a" x1="6" y1="6" x2="30" y2="30" gradientUnits="userSpaceOnUse"><stop stop-color="#fff"/><stop offset="1" stop-color="#ededed"/></linearGradient><linearGradient id="b" x1="30" y1="6" x2="10" y2="30" gradientUnits="userSpaceOnUse"><stop stop-color="#2764e7"/><stop offset="1" stop-color="#36dff1"/></linearGradient></defs><path fill="url(#a)" d="M31 2H5a3 3 0 0 0-3 3v26a3 3 0 0 0 3 3h26a3 3 0 0 0 3-3V5a3 3 0 0 0-3-3"/><path fill="url(#b)" d="M4.998 33a2 2 0 0 1-1.759-2.948l7-13a2 2 0 0 1 3.175-.466l6.076 6.076 9.738-18.59a2 2 0 0 1 3.543 1.857l-11 21a2 2 0 0 1-1.47 1.05 2.02 2.02 0 0 1-1.716-.563l-6.1-6.099-5.724 10.631A2 2 0 0 1 4.998 33"/></svg>